{"glyphs":{":":{"x_min":0,"x_max":247,"ha":247,"o":"m 69 374 l 69 518 l 178 518 l 178 374 z m 69 0 l 69 144 l 178 144 l 178 0 z"},"$":{"x_min":0,"x_max":634,"ha":634,"o":"m 509 524 q 503 531 486 541 q 470 551 448 562 q 425 572 398 580 q 371 589 342 592 l 342 419 l 367 413 q 419 399 462 383 q 504 367 534 343 q 563 319 579 286 q 595 252 595 203 q 595 148 576 109 q 556 70 522 45 q 489 20 444 8 q 400 -5 351 -7 l 351 -117 l 291 -117 l 291 -6 q 221 -1 154 22 q 88 46 34 84 l 95 203 q 103 195 122 182 q 142 169 170 156 q 197 144 230 133 q 264 122 300 118 l 300 290 q 291 292 282 294 q 273 297 264 300 q 213 314 176 330 q 138 347 113 370 q 88 392 76 422 q 63 451 63 492 q 63 542 80 582 q 98 621 128 649 q 159 677 201 693 q 243 709 291 713 l 291 815 l 351 815 l 351 714 q 417 709 472 687 q 528 665 570 636 z m 448 189 q 448 223 420 242 q 392 261 342 277 l 342 116 q 448 119 448 189 z m 205 514 q 205 480 228 462 q 252 445 300 431 l 300 593 q 205 587 205 514 z"},"?":{"x_min":0,"x_max":486,"ha":486,"o":"m 122 233 q 122 282 138 321 q 154 360 204 389 q 219 398 241 410 q 263 421 284 437 q 305 453 320 474 q 334 496 334 524 q 334 545 326 561 q 318 577 305 588 q 292 599 274 604 q 257 610 239 610 q 217 610 199 602 q 181 595 166 584 q 152 572 140 558 q 129 543 121 530 l 34 590 q 47 621 68 645 q 90 669 118 686 q 145 702 177 710 q 209 719 243 719 q 281 719 318 708 q 355 697 384 673 q 414 649 432 612 q 451 574 451 522 q 451 490 444 466 q 436 441 422 421 q 408 401 389 385 q 370 369 346 354 q 326 342 306 331 q 286 320 270 306 q 253 293 242 276 q 232 258 232 233 z m 124 0 l 124 138 l 235 138 l 235 0 z"},"<":{"x_min":0,"x_max":515,"ha":515,"o":"m 32 288 l 454 543 l 454 401 l 227 259 l 454 123 l 454 -27 l 32 223 z"},"'":{"x_min":0,"x_max":235,"ha":235,"o":"m 61 499 l 61 723 l 175 723 l 175 499 z"},"=":{"x_min":0,"x_max":436,"ha":436,"o":"m 62 144 l 62 231 l 375 231 l 375 144 z m 62 321 l 62 408 l 375 408 l 375 321 z"},"a":{"x_min":0,"x_max":574,"ha":574,"o":"m 204 -10 q 166 -10 133 2 q 100 15 76 38 q 52 60 38 90 q 25 120 25 156 q 25 193 42 224 q 58 256 88 278 q 117 300 158 312 q 199 325 248 325 q 283 325 316 319 q 350 313 376 302 l 376 332 q 376 384 346 412 q 317 440 259 440 q 217 440 177 425 q 137 410 95 381 l 54 466 q 155 533 272 533 q 385 533 448 478 q 510 422 510 317 l 510 154 q 510 133 518 124 q 525 115 542 114 l 542 0 q 508 -7 483 -7 q 445 -7 424 10 q 404 27 399 55 l 396 84 q 361 38 311 14 q 261 -10 204 -10 z m 242 88 q 276 88 306 100 q 337 112 354 132 q 376 149 376 170 l 376 230 q 352 239 324 244 q 296 250 270 250 q 218 250 185 226 q 152 203 152 167 q 152 133 178 110 q 204 88 242 88 z"},"L":{"x_min":0,"x_max":584,"ha":584,"o":"m 74 0 l 74 710 l 212 710 l 212 121 l 574 121 l 574 0 z"},"3":{"x_min":0,"x_max":558,"ha":558,"o":"m 381 236 q 443 225 482 176 q 520 128 520 58 q 520 11 502 -27 q 483 -65 450 -92 q 416 -118 368 -132 q 320 -147 260 -147 q 184 -147 126 -122 q 67 -98 28 -51 l 104 44 q 130 11 166 -7 q 202 -25 256 -25 q 317 -25 349 -1 q 381 23 381 73 q 381 125 344 153 q 307 181 232 181 l 204 181 l 204 281 l 235 281 q 297 281 331 308 q 365 336 365 379 q 365 420 337 440 q 309 460 264 460 q 218 460 182 439 q 145 418 122 380 l 38 474 q 53 497 78 516 q 103 534 134 548 q 166 561 203 568 q 240 576 279 576 q 330 576 372 563 q 414 550 444 527 q 475 504 492 472 q 508 439 508 399 q 508 369 499 342 q 490 315 473 293 q 456 271 432 256 q 409 241 381 236 z"},";":{"x_min":0,"x_max":259,"ha":259,"o":"m 72 374 l 72 518 l 182 518 l 182 374 z m 86 -115 l 113 4 l 71 4 l 71 144 l 188 144 l 188 4 l 147 -115 z"},"J":{"x_min":0,"x_max":491,"ha":491,"o":"m 38 145 q 52 135 85 123 q 118 111 161 111 q 203 111 228 126 q 253 140 266 170 q 279 200 283 244 q 287 289 287 349 l 287 710 l 425 710 l 425 349 q 425 268 416 202 q 408 135 380 88 q 353 41 301 15 q 249 -11 161 -11 q 71 -11 7 33 z"},"V":{"x_min":0,"x_max":676,"ha":676,"o":"m 147 710 l 339 173 l 529 710 l 674 710 l 397 0 l 281 0 l 2 710 z"},"\"":{"x_min":0,"x_max":393,"ha":393,"o":"m 61 499 l 61 723 l 175 723 l 175 499 z m 218 499 l 218 723 l 332 723 l 332 499 z"},"7":{"x_min":0,"x_max":561,"ha":561,"o":"m 351 461 l 28 461 l 28 583 l 562 583 l 210 -127 l 58 -127 z"},"S":{"x_min":0,"x_max":613,"ha":613,"o":"m 497 524 q 490 531 472 543 q 453 555 426 566 q 400 578 369 586 q 338 594 306 594 q 249 594 221 573 q 193 552 193 514 q 193 492 204 478 q 214 463 234 452 q 254 441 284 432 q 315 423 355 413 q 407 399 450 383 q 492 367 522 343 q 551 319 567 286 q 583 252 583 203 q 583 146 562 106 q 540 65 504 40 q 467 15 420 4 q 372 -8 320 -8 q 240 -8 162 16 q 84 40 22 84 l 83 203 q 92 194 116 180 q 139 165 171 150 q 203 136 242 126 q 281 116 322 116 q 436 116 436 189 q 436 212 423 228 q 410 244 386 256 q 362 268 328 278 q 294 288 252 300 q 201 314 164 330 q 126 347 101 370 q 76 392 64 422 q 51 451 51 492 q 51 546 71 588 q 91 630 126 658 q 162 686 209 700 q 256 715 310 715 q 385 715 448 692 q 511 668 558 636 z"},"}":{"x_min":0,"x_max":317,"ha":317,"o":"m 50 633 l 50 740 l 203 740 q 208 740 217 734 q 226 729 226 710 l 226 473 q 226 462 230 451 q 234 440 240 430 q 247 420 256 414 q 265 408 276 408 l 276 314 q 256 310 241 292 q 226 273 226 247 l 226 -1 q 226 -19 218 -25 q 209 -31 203 -31 l 50 -31 l 50 76 l 105 76 l 105 291 q 105 311 114 328 q 124 346 140 360 q 124 374 114 392 q 105 409 105 429 l 105 633 z"},"Z":{"x_min":0,"x_max":627,"ha":627,"o":"m 30 104 l 431 589 l 41 589 l 41 710 l 590 710 l 590 606 l 202 121 l 593 121 l 593 0 l 30 0 z"},"x":{"x_min":0,"x_max":531,"ha":531,"o":"m 144 524 l 257 360 l 265 342 l 275 360 l 387 524 l 525 524 l 338 261 l 528 0 l 390 0 l 274 163 l 265 180 l 257 163 l 142 0 l 4 0 l 193 261 l 7 524 z"},")":{"x_min":0,"x_max":309,"ha":309,"o":"m 275 347 q 275 296 263 245 q 251 194 231 143 q 211 92 184 42 q 156 -7 125 -53 l 27 -4 q 82 89 116 176 q 150 263 150 344 q 150 395 136 450 q 122 506 102 556 q 83 607 62 648 q 40 690 24 714 l 127 757 q 158 704 185 652 q 212 601 232 550 q 252 499 264 448 q 275 398 275 347 z"},"&":{"x_min":0,"x_max":712,"ha":712,"o":"m 536 0 l 480 59 q 436 25 385 8 q 334 -10 280 -10 q 225 -10 180 7 q 136 24 105 53 q 74 82 57 120 q 40 159 40 201 q 40 234 50 262 q 60 290 78 314 q 95 337 118 357 q 140 377 165 394 q 122 442 104 476 q 87 511 87 549 q 87 587 102 618 q 117 650 143 672 q 169 695 204 707 q 240 719 282 719 q 319 719 353 709 q 387 699 413 680 q 439 660 455 630 q 471 601 471 562 q 471 504 437 460 q 403 417 350 379 l 486 237 q 501 269 510 307 q 518 345 518 389 l 627 389 q 626 318 610 260 q 594 202 565 154 l 712 0 z m 293 95 q 355 95 408 136 l 244 309 q 209 284 189 258 q 169 232 169 200 q 169 179 178 160 q 187 140 204 126 q 220 112 243 104 q 266 95 293 95 z m 209 553 q 209 544 212 536 q 215 527 222 517 q 229 507 240 494 q 252 481 270 462 q 308 488 328 510 q 348 533 348 560 q 348 587 330 604 q 311 620 282 620 q 250 620 230 600 q 209 581 209 553 z"},"_":{"x_min":0,"x_max":475,"ha":475,"o":"m 54 -121 l 54 0 l 421 0 l 421 -121 z"},"v":{"x_min":0,"x_max":549,"ha":549,"o":"m 202 0 l 9 524 l 147 524 l 280 109 l 414 524 l 540 524 l 347 0 z"},"O":{"x_min":0,"x_max":756,"ha":756,"o":"m 377 -5 q 299 -5 236 26 q 172 56 126 106 q 81 157 56 222 q 31 287 31 355 q 31 426 58 491 q 84 556 130 606 q 177 656 241 686 q 305 715 380 715 q 457 715 520 684 q 584 652 629 601 q 674 550 699 485 q 724 420 724 353 q 724 282 698 218 q 672 153 626 104 q 580 54 516 24 q 452 -5 377 -5 z m 171 355 q 171 309 185 266 q 199 223 226 190 q 252 157 290 137 q 329 117 378 117 q 428 117 466 138 q 505 158 532 192 q 558 226 572 268 q 585 311 585 355 q 585 401 570 444 q 556 487 530 520 q 503 553 464 572 q 426 592 378 592 q 328 592 289 572 q 250 551 224 518 q 198 484 184 442 q 171 399 171 355 z"},"(":{"x_min":0,"x_max":310,"ha":310,"o":"m 34 347 q 34 398 46 448 q 57 499 78 550 q 98 601 125 652 q 152 704 183 757 l 285 714 q 269 690 248 648 q 226 607 206 556 q 187 506 173 450 q 159 395 159 344 q 159 263 194 176 q 228 89 282 -4 l 184 -53 q 153 -7 126 42 q 98 92 78 143 q 58 194 46 245 q 34 296 34 347 z"},"C":{"x_min":0,"x_max":686,"ha":686,"o":"m 31 360 q 31 425 54 488 q 78 552 123 602 q 168 652 233 683 q 298 714 381 714 q 479 714 550 671 q 622 628 657 559 l 551 486 q 537 516 517 536 q 497 557 474 569 q 451 581 426 586 q 401 592 377 592 q 325 592 286 571 q 248 550 222 516 q 197 483 184 440 q 171 398 171 356 q 171 309 186 266 q 201 222 228 189 q 256 156 294 136 q 333 116 379 116 q 403 116 429 122 q 455 128 478 141 q 502 154 522 174 q 542 195 554 224 l 667 159 q 650 119 618 88 q 587 58 548 37 q 508 16 463 5 q 418 -6 375 -6 q 299 -6 236 26 q 173 58 128 110 q 82 161 56 226 q 31 292 31 360 z"},"W":{"x_min":0,"x_max":1053,"ha":1053,"o":"m 319 708 l 446 708 l 526 473 l 606 708 l 734 708 l 613 385 l 703 158 l 904 710 l 1054 710 l 765 0 l 649 0 l 526 298 l 403 0 l 287 0 l 0 710 l 148 710 l 350 158 l 438 385 z"},"A":{"x_min":0,"x_max":672,"ha":672,"o":"m 276 710 l 398 710 l 668 0 l 526 0 l 460 177 l 212 177 l 147 0 l 5 0 z m 435 274 l 337 553 l 235 274 z"},"f":{"x_min":0,"x_max":370,"ha":370,"o":"m 93 0 l 93 394 l 24 394 l 24 496 l 93 496 l 93 528 q 93 626 140 683 q 187 740 268 740 q 332 740 397 709 l 370 608 q 355 616 334 622 q 314 627 297 627 q 227 627 227 533 l 227 496 l 355 496 l 355 394 l 227 394 l 227 0 z"},"Q":{"x_min":0,"x_max":755,"ha":755,"o":"m 557 46 q 518 22 473 8 q 428 -5 377 -5 q 299 -5 236 26 q 172 57 126 107 q 81 157 56 222 q 31 287 31 355 q 31 426 58 491 q 84 556 130 606 q 177 656 241 686 q 305 715 380 715 q 457 715 520 684 q 584 652 629 601 q 674 550 699 485 q 724 420 724 353 q 724 284 700 221 q 675 158 631 109 l 728 0 l 598 0 z m 378 117 q 405 117 428 124 q 452 130 472 141 l 364 263 l 494 263 l 543 208 q 563 240 574 278 q 585 316 585 355 q 585 401 570 444 q 556 487 530 520 q 503 553 464 573 q 426 593 378 593 q 328 593 289 572 q 250 552 224 518 q 198 484 184 442 q 171 399 171 355 q 171 309 185 266 q 199 223 226 190 q 252 157 290 137 q 329 117 378 117 z"},"w":{"x_min":0,"x_max":839,"ha":839,"o":"m 711 524 l 838 524 l 619 0 l 509 0 l 419 230 l 330 0 l 220 0 l 2 524 l 128 524 l 284 126 l 348 296 l 256 523 l 364 523 l 419 362 l 475 523 l 583 523 l 492 296 l 555 126 z"},"-":{"x_min":0,"x_max":418,"ha":418,"o":"m 58 214 l 58 335 l 361 335 l 361 214 z"},"E":{"x_min":0,"x_max":601,"ha":601,"o":"m 567 121 l 567 0 l 74 0 l 74 710 l 558 710 l 558 589 l 212 589 l 212 418 l 511 418 l 511 306 l 212 306 l 212 121 z"},"s":{"x_min":0,"x_max":497,"ha":497,"o":"m 259 -10 q 193 -10 130 11 q 67 32 22 71 l 72 155 q 120 121 166 104 q 211 86 256 86 q 296 86 319 101 q 342 116 342 144 q 342 172 315 185 q 288 198 227 215 q 176 229 140 242 q 104 255 82 272 q 60 288 50 310 q 40 331 40 361 q 40 401 56 433 q 71 465 99 488 q 127 510 164 522 q 202 534 246 534 q 305 534 356 517 q 408 500 451 462 l 397 381 q 357 411 320 425 q 282 439 245 439 q 211 439 188 425 q 165 411 165 380 q 165 366 170 357 q 176 348 188 341 q 200 334 220 328 q 239 321 268 314 q 322 300 360 286 q 399 272 424 254 q 448 236 460 212 q 471 189 471 156 q 471 79 414 34 q 357 -10 259 -10 z"},">":{"x_min":0,"x_max":515,"ha":515,"o":"m 483 223 l 61 -27 l 61 123 l 288 259 l 61 401 l 61 543 l 483 288 z"},"l":{"x_min":0,"x_max":317,"ha":317,"o":"m 60 730 l 194 730 l 194 168 q 194 139 208 123 q 222 107 248 107 q 260 107 274 111 q 289 115 302 121 l 320 19 q 293 6 257 -1 q 221 -8 192 -8 q 129 -8 94 26 q 60 59 60 121 z"},"8":{"x_min":0,"x_max":604,"ha":604,"o":"m 560 210 q 560 160 540 120 q 519 80 484 51 q 448 22 401 6 q 354 -9 301 -9 q 248 -9 201 8 q 154 24 119 54 q 84 84 64 125 q 44 166 44 215 q 44 245 54 270 q 64 296 80 317 q 96 338 116 354 q 135 370 155 380 q 118 398 92 434 q 66 470 66 513 q 66 561 88 598 q 109 634 144 659 q 178 684 220 697 q 261 710 302 710 q 342 710 384 698 q 427 685 461 660 q 495 635 517 598 q 539 562 539 514 q 539 493 532 472 q 525 452 512 434 q 500 417 483 403 q 466 389 447 380 q 469 369 489 352 q 509 336 525 314 q 541 293 550 267 q 560 241 560 210 z m 424 218 q 424 243 414 263 q 403 283 386 296 q 368 310 346 317 q 324 324 301 324 q 277 324 255 316 q 233 309 216 295 q 200 281 190 262 q 180 242 180 218 q 180 194 190 174 q 201 155 218 141 q 235 127 257 120 q 279 112 302 112 q 326 112 348 120 q 370 128 387 142 q 404 156 414 176 q 424 195 424 218 z m 202 509 q 202 488 211 472 q 220 457 234 446 q 249 436 266 430 q 284 425 302 425 q 319 425 337 430 q 355 436 370 447 q 384 458 393 474 q 402 489 402 510 q 402 547 372 569 q 343 591 301 591 q 260 591 231 568 q 202 546 202 509 z"},"\\":{"x_min":0,"x_max":637,"ha":637,"o":"m 176 710 l 611 0 l 463 0 l 27 710 z"},"e":{"x_min":0,"x_max":599,"ha":599,"o":"m 304 -10 q 241 -10 190 12 q 139 33 103 70 q 67 107 48 156 q 28 205 28 259 q 28 315 47 364 q 66 414 102 452 q 138 489 190 511 q 241 533 305 533 q 369 533 420 511 q 470 489 506 452 q 541 415 560 366 q 578 317 578 264 q 578 251 578 239 q 577 227 575 219 l 170 219 q 173 188 185 164 q 197 140 216 123 q 235 106 259 97 q 283 88 309 88 q 349 88 384 108 q 420 127 433 159 l 548 127 q 519 67 456 28 q 392 -10 304 -10 z m 440 306 q 435 365 396 400 q 358 436 303 436 q 276 436 252 426 q 229 417 211 400 q 193 383 182 359 q 170 335 168 306 z"},"b":{"x_min":0,"x_max":634,"ha":634,"o":"m 359 -10 q 299 -10 252 17 q 205 44 178 91 l 178 0 l 61 0 l 61 730 l 195 730 l 195 432 q 223 480 268 506 q 314 533 375 533 q 426 533 468 511 q 510 489 540 452 q 571 415 588 365 q 604 315 604 260 q 604 203 586 154 q 567 105 534 68 q 501 32 456 11 q 411 -10 359 -10 z m 322 104 q 354 104 381 116 q 408 129 427 150 q 446 171 456 199 q 467 227 467 259 q 467 291 457 320 q 447 349 428 371 q 410 393 385 406 q 360 419 330 419 q 285 419 250 390 q 214 360 195 317 l 195 192 q 202 172 216 156 q 229 140 246 128 q 263 117 283 110 q 303 104 322 104 z"},"%":{"x_min":0,"x_max":786,"ha":786,"o":"m 200 417 q 165 417 135 429 q 105 441 83 462 q 61 482 48 510 q 35 537 35 569 q 35 600 48 628 q 61 656 83 676 q 105 696 135 708 q 165 720 200 720 q 234 720 264 708 q 295 696 317 676 q 339 656 352 628 q 365 600 365 569 q 365 537 352 510 q 339 482 317 462 q 295 441 264 429 q 234 417 200 417 z m 200 484 q 215 484 228 491 q 240 498 250 510 q 260 521 266 536 q 271 552 271 569 q 271 604 250 628 q 229 653 200 653 q 185 653 172 646 q 160 639 150 628 q 140 616 134 601 q 129 586 129 569 q 129 534 150 509 q 171 484 200 484 z m 586 -10 q 551 -10 521 2 q 491 14 469 34 q 447 54 434 82 q 421 109 421 141 q 421 173 434 200 q 447 228 469 248 q 491 269 521 281 q 551 293 586 293 q 621 293 651 281 q 681 269 704 248 q 726 228 738 200 q 751 173 751 141 q 751 109 738 82 q 726 54 704 34 q 681 14 651 2 q 621 -10 586 -10 z m 586 57 q 601 57 614 64 q 626 71 636 82 q 646 94 652 109 q 657 124 657 141 q 657 159 651 174 q 645 190 636 202 q 626 213 613 220 q 600 226 586 226 q 571 226 558 219 q 546 212 536 200 q 526 189 520 174 q 515 158 515 141 q 515 106 536 82 q 557 57 586 57 z m 91 47 l 373 376 l 633 718 l 694 664 l 421 341 l 152 -7 z"},"m":{"x_min":0,"x_max":931,"ha":931,"o":"m 875 0 l 741 0 l 741 294 q 741 357 720 386 q 698 415 660 415 q 620 415 585 384 q 550 354 535 305 l 535 0 l 401 0 l 401 294 q 401 357 380 386 q 358 415 320 415 q 281 415 246 385 q 210 355 195 306 l 195 0 l 61 0 l 61 524 l 182 524 l 182 427 q 211 478 262 506 q 312 533 377 533 q 443 533 479 501 q 515 469 525 422 q 557 476 606 504 q 655 533 718 533 q 766 533 797 515 q 828 497 845 468 q 862 439 868 402 q 875 365 875 327 z"},"#":{"x_min":0,"x_max":721,"ha":721,"o":"m 685 424 l 539 424 l 507 287 l 638 287 l 638 187 l 483 187 l 437 0 l 329 0 l 376 187 l 256 187 l 211 0 l 103 0 l 149 187 l 37 187 l 37 287 l 173 287 l 206 424 l 84 424 l 84 518 l 229 518 l 276 710 l 384 710 l 336 518 l 456 518 l 502 710 l 610 710 l 563 518 l 685 518 z m 400 287 l 432 424 l 313 424 l 280 287 z"},",":{"x_min":0,"x_max":232,"ha":232,"o":"m 73 -115 l 100 4 l 58 4 l 58 144 l 174 144 l 174 4 l 133 -115 z"},"n":{"x_min":0,"x_max":604,"ha":604,"o":"m 548 0 l 414 0 l 414 294 q 414 357 392 386 q 370 415 331 415 q 311 415 290 407 q 269 399 250 384 q 232 370 217 350 q 202 330 195 306 l 195 0 l 61 0 l 61 524 l 182 524 l 182 427 q 211 477 266 505 q 321 533 390 533 q 439 533 470 515 q 501 497 518 468 q 535 439 542 402 q 548 365 548 327 z"},"h":{"x_min":0,"x_max":604,"ha":604,"o":"m 548 0 l 414 0 l 414 294 q 414 356 391 386 q 368 415 326 415 q 308 415 288 407 q 268 399 250 384 q 232 370 217 350 q 202 330 195 306 l 195 0 l 61 0 l 61 730 l 195 730 l 195 427 q 224 478 274 506 q 323 533 383 533 q 434 533 466 516 q 498 498 516 469 q 534 440 541 403 q 548 366 548 327 z"},"z":{"x_min":0,"x_max":493,"ha":493,"o":"m 26 82 l 318 430 l 38 430 l 38 524 l 459 524 l 459 442 l 169 94 l 464 94 l 464 0 l 26 0 z"},"B":{"x_min":0,"x_max":680,"ha":680,"o":"m 646 183 q 646 138 628 104 q 610 70 578 47 q 547 24 506 12 q 464 0 417 0 l 74 0 l 74 710 l 454 710 q 491 710 521 694 q 551 678 572 652 q 593 627 604 594 q 616 562 616 529 q 616 477 590 432 q 564 386 514 364 q 575 346 610 300 q 646 253 646 183 z m 507 209 q 507 228 500 246 q 494 263 483 276 q 472 289 457 296 q 442 304 424 304 l 212 304 l 212 117 l 417 117 q 436 117 452 124 q 469 131 481 144 q 493 156 500 173 q 507 190 507 209 z m 212 592 l 212 413 l 396 413 q 431 413 456 437 q 480 461 480 503 q 480 544 458 568 q 435 592 402 592 z"},"K":{"x_min":0,"x_max":669,"ha":669,"o":"m 74 0 l 74 709 l 212 709 l 212 372 l 510 710 l 662 710 l 390 395 l 679 0 l 524 0 l 303 307 l 212 212 l 212 0 z"},"R":{"x_min":0,"x_max":665,"ha":665,"o":"m 74 0 l 74 710 l 388 710 q 437 710 478 690 q 520 669 550 636 q 580 602 597 560 q 614 517 614 474 q 614 405 580 348 q 545 292 486 267 l 648 0 l 493 0 l 348 238 l 212 238 l 212 0 z m 212 359 l 385 359 q 404 359 420 368 q 437 377 449 392 q 461 408 468 429 q 475 450 475 474 q 475 499 467 520 q 459 541 446 556 q 432 572 414 580 q 397 589 379 589 l 212 589 z"},"T":{"x_min":0,"x_max":619,"ha":619,"o":"m 605 589 l 378 589 l 378 0 l 241 0 l 241 589 l 14 589 l 14 710 l 605 710 z"},"P":{"x_min":0,"x_max":623,"ha":623,"o":"m 74 0 l 74 710 l 375 710 q 424 710 466 690 q 507 669 537 636 q 567 602 584 560 q 601 517 601 474 q 601 429 585 386 q 569 344 540 311 q 511 278 470 258 q 429 238 380 238 l 212 238 l 212 0 z m 212 359 l 372 359 q 410 359 436 390 q 461 421 461 474 q 461 501 453 522 q 445 544 432 559 q 419 574 402 582 q 384 589 366 589 l 212 589 z"},"|":{"x_min":0,"x_max":272,"ha":272,"o":"m 79 -130 l 79 775 l 193 775 l 193 -130 z"},"t":{"x_min":0,"x_max":384,"ha":384,"o":"m 375 27 q 348 15 309 3 q 270 -9 227 -9 q 199 -9 174 -2 q 150 5 132 20 q 113 36 102 60 q 91 85 91 120 l 91 421 l 22 421 l 22 524 l 91 524 l 91 694 l 225 694 l 225 524 l 335 524 l 335 421 l 225 421 l 225 165 q 225 137 240 126 q 254 114 275 114 q 296 114 316 121 q 336 128 348 133 z"},"M":{"x_min":0,"x_max":865,"ha":865,"o":"m 653 0 l 653 470 l 470 120 l 395 120 l 212 470 l 212 0 l 74 0 l 74 710 l 222 710 l 432 306 l 644 710 l 791 710 l 791 0 z"},"g":{"x_min":0,"x_max":634,"ha":634,"o":"m 266 -3 q 213 -3 170 18 q 127 39 96 76 q 64 112 47 160 q 30 208 30 262 q 30 319 48 368 q 66 417 98 454 q 130 491 175 512 q 220 533 274 533 q 335 533 381 506 q 427 478 457 432 l 457 524 l 574 524 l 574 25 q 574 -33 552 -79 q 530 -125 492 -157 q 453 -189 400 -206 q 346 -223 283 -223 q 197 -223 138 -194 q 80 -166 38 -114 l 111 -43 q 141 -80 186 -101 q 232 -122 283 -122 q 314 -122 342 -114 q 371 -105 393 -87 q 415 -69 428 -41 q 440 -13 440 25 l 440 91 q 414 46 367 22 q 320 -3 266 -3 z m 311 104 q 333 104 353 111 q 373 118 390 130 q 407 142 420 158 q 433 174 440 192 l 440 317 q 422 363 384 391 q 345 419 303 419 q 272 419 247 406 q 222 392 204 370 q 186 347 176 318 q 167 289 167 258 q 167 226 178 198 q 189 170 208 149 q 228 128 254 116 q 280 104 311 104 z"},"j":{"x_min":0,"x_max":261,"ha":261,"o":"m 18 -196 q -20 -196 -54 -184 q -88 -173 -115 -149 l -57 -58 q -46 -69 -30 -74 q -14 -80 2 -80 q 28 -80 47 -62 q 66 -43 66 -14 l 66 524 l 200 524 l 200 -4 q 200 -46 186 -82 q 172 -117 148 -142 q 123 -168 90 -182 q 56 -196 18 -196 z m 66 597 l 66 730 l 200 730 l 200 597 z"},"i":{"x_min":0,"x_max":255,"ha":255,"o":"m 61 0 l 61 524 l 195 524 l 195 0 z m 61 597 l 61 730 l 195 730 l 195 597 z"},"y":{"x_min":0,"x_max":550,"ha":550,"o":"m 72 -102 q 89 -107 105 -110 q 121 -112 132 -112 q 145 -112 156 -107 q 167 -102 176 -90 q 185 -77 194 -55 q 203 -33 213 0 l 6 524 l 144 524 l 286 116 l 412 524 l 538 524 l 318 -104 q 299 -159 253 -194 q 207 -229 139 -229 q 123 -229 106 -226 q 90 -224 72 -218 z"},"@":{"x_min":0,"x_max":845,"ha":845,"o":"m 422 603 q 495 603 562 578 q 630 553 682 505 q 734 457 764 386 q 795 315 795 222 q 795 208 794 184 q 792 161 787 135 q 782 109 772 82 q 762 55 745 33 q 728 11 702 -2 q 677 -16 641 -16 q 614 -16 596 -8 q 579 -1 568 11 q 558 23 553 38 q 548 52 546 66 q 515 35 471 16 q 427 -2 376 -2 q 301 -2 262 37 q 223 76 223 138 q 223 179 240 207 q 256 235 282 252 q 309 269 342 276 q 376 284 410 284 q 450 284 479 276 q 508 269 523 262 q 523 289 518 312 q 513 335 500 351 q 487 367 465 376 q 443 385 409 385 q 368 385 334 373 q 300 361 276 341 l 250 412 q 326 462 422 462 q 487 462 524 442 q 560 422 578 392 q 595 361 599 324 q 603 287 603 253 l 603 157 q 603 135 604 114 q 606 94 611 78 q 616 63 626 54 q 636 44 654 44 q 681 44 698 64 q 714 84 724 112 q 733 141 736 172 q 739 203 739 224 q 739 294 716 354 q 692 413 650 456 q 608 500 549 524 q 490 549 418 549 q 347 549 288 525 q 230 501 188 458 q 145 416 122 358 q 98 299 98 230 q 98 163 120 104 q 142 46 182 2 q 223 -41 280 -66 q 337 -92 407 -92 q 455 -92 490 -82 q 525 -71 563 -54 l 579 -106 q 537 -126 493 -136 q 449 -146 405 -146 q 330 -146 264 -119 q 198 -92 148 -42 q 99 7 70 76 q 42 146 42 230 q 42 319 73 388 q 104 458 156 506 q 209 553 278 578 q 347 603 422 603 z m 471 87 q 498 100 510 119 q 522 138 522 161 l 522 199 q 508 204 478 212 q 448 220 410 220 q 363 220 333 202 q 303 184 303 141 q 303 107 324 87 q 346 67 384 67 q 404 67 428 72 q 452 77 471 87 z"},".":{"x_min":0,"x_max":225,"ha":225,"o":"m 58 0 l 58 144 l 168 144 l 168 0 z"},"p":{"x_min":0,"x_max":634,"ha":634,"o":"m 375 -10 q 313 -10 267 18 q 221 45 195 92 l 195 -213 l 61 -213 l 61 524 l 178 524 l 178 434 q 207 480 253 506 q 299 533 359 533 q 412 533 457 512 q 502 490 534 454 q 567 417 586 368 q 604 318 604 263 q 604 206 587 156 q 570 106 540 69 q 509 32 467 11 q 425 -10 375 -10 z m 330 104 q 360 104 386 117 q 411 130 429 152 q 447 174 457 203 q 467 232 467 263 q 467 296 456 324 q 445 353 426 374 q 406 395 380 407 q 353 419 322 419 q 303 419 283 412 q 263 406 246 394 q 229 382 216 366 q 202 350 195 331 l 195 208 q 213 163 250 134 q 287 104 330 104 z"},"X":{"x_min":0,"x_max":646,"ha":646,"o":"m 147 710 l 324 446 l 500 710 l 649 710 l 396 350 l 641 0 l 492 0 l 324 254 l 155 0 l 5 0 l 250 350 l -3 710 z"},"*":{"x_min":0,"x_max":345,"ha":345,"o":"m 75 520 l 122 591 l 51 613 l 69 671 l 142 640 l 137 717 l 208 717 l 203 640 l 275 671 l 293 613 l 223 591 l 270 520 l 218 486 l 173 561 l 127 486 z"},"Y":{"x_min":0,"x_max":660,"ha":660,"o":"m 154 710 l 329 368 l 507 710 l 656 710 l 398 248 l 398 0 l 261 0 l 261 250 l 4 710 z"},"c":{"x_min":0,"x_max":564,"ha":564,"o":"m 28 262 q 28 317 47 366 q 66 415 102 452 q 138 489 189 511 q 240 533 304 533 q 390 533 450 496 q 511 459 541 399 l 410 359 q 393 388 365 404 q 337 419 303 419 q 274 419 249 408 q 224 396 206 376 q 187 355 176 326 q 166 297 166 262 q 166 227 177 198 q 188 169 206 148 q 225 127 250 116 q 275 104 303 104 q 339 104 370 122 q 400 140 412 166 l 543 126 q 516 66 454 28 q 392 -10 305 -10 q 241 -10 190 12 q 139 34 103 72 q 67 109 48 158 q 28 208 28 262 z"},"!":{"x_min":0,"x_max":307,"ha":307,"o":"m 87 267 l 87 717 l 221 717 l 221 267 z m 87 0 l 87 151 l 221 151 l 221 0 z"},"/":{"x_min":0,"x_max":698,"ha":698,"o":"m 671 710 l 175 0 l 27 0 l 522 710 z"},"[":{"x_min":0,"x_max":316,"ha":316,"o":"m 82 -40 l 82 740 l 269 740 l 269 633 l 206 633 l 206 67 l 269 67 l 269 -40 z"},"6":{"x_min":0,"x_max":607,"ha":607,"o":"m 567 237 q 567 185 547 140 q 527 95 492 62 q 457 28 410 9 q 362 -10 307 -10 q 247 -10 198 12 q 150 34 116 76 q 82 118 64 178 q 46 239 46 316 q 46 413 65 488 q 84 562 120 612 q 156 663 207 689 q 258 715 321 715 q 388 715 444 686 q 501 657 540 603 l 463 519 q 439 557 401 578 q 363 599 319 599 q 252 599 212 546 q 172 493 170 396 q 191 432 230 453 q 268 474 319 474 q 371 474 416 456 q 462 438 496 406 q 529 374 548 330 q 567 287 567 237 z m 308 103 q 334 103 358 114 q 382 124 400 142 q 418 161 428 186 q 439 210 439 237 q 439 264 428 288 q 418 311 400 329 q 382 347 358 357 q 335 367 308 367 q 281 367 257 357 q 233 347 215 329 q 197 311 187 288 q 177 264 177 237 q 177 210 188 186 q 198 161 216 143 q 234 125 258 114 q 281 103 308 103 z"},"r":{"x_min":0,"x_max":387,"ha":387,"o":"m 373 408 q 312 407 264 384 q 216 362 195 317 l 195 0 l 61 0 l 61 524 l 184 524 l 184 412 q 198 439 217 460 q 236 482 258 498 q 280 514 302 522 q 325 531 346 531 q 357 531 362 531 q 368 531 373 530 z"},"2":{"x_min":0,"x_max":564,"ha":564,"o":"m 38 0 q 38 45 45 82 q 52 118 70 149 q 87 180 118 207 q 148 234 195 260 q 236 282 268 298 q 299 315 320 329 q 341 343 352 358 q 363 372 363 391 q 363 421 339 442 q 315 464 270 464 q 246 464 226 458 q 206 451 188 440 q 171 429 156 416 q 142 402 130 387 l 44 486 q 57 500 81 516 q 105 533 138 548 q 170 562 210 572 q 249 581 294 581 q 345 581 385 568 q 425 556 452 534 q 480 511 494 480 q 509 448 509 411 q 509 376 496 349 q 483 322 463 301 q 443 280 420 264 q 396 249 374 237 q 356 227 333 214 q 310 201 288 186 q 265 170 246 154 q 227 137 217 121 l 520 121 l 520 0 z"},"{":{"x_min":0,"x_max":317,"ha":317,"o":"m 212 633 l 212 429 q 212 409 203 392 q 194 374 178 360 q 193 346 202 328 q 212 311 212 291 l 212 76 l 267 76 l 267 -31 l 115 -31 q 108 -31 100 -25 q 92 -19 92 -1 l 92 247 q 92 273 77 292 q 62 310 42 314 l 42 408 q 52 408 62 414 q 71 420 78 430 q 84 440 88 451 q 92 462 92 473 l 92 710 q 92 729 100 734 q 109 740 115 740 l 267 740 l 267 633 z"},"9":{"x_min":0,"x_max":589,"ha":589,"o":"m 32 324 q 32 376 52 421 q 72 466 106 500 q 141 533 188 552 q 236 571 291 571 q 351 571 400 549 q 448 527 482 485 q 516 443 534 382 q 553 322 553 245 q 553 148 534 74 q 514 -1 478 -52 q 443 -102 392 -128 q 341 -154 278 -154 q 211 -154 154 -125 q 97 -96 58 -42 l 135 42 q 159 4 197 -17 q 235 -38 280 -38 q 347 -38 386 15 q 426 68 428 165 q 408 129 369 108 q 330 87 279 87 q 226 87 181 105 q 136 123 103 155 q 70 187 51 230 q 32 274 32 324 z m 291 458 q 264 458 240 448 q 217 437 199 418 q 181 400 170 376 q 160 351 160 324 q 160 297 170 274 q 181 250 198 232 q 216 214 240 204 q 264 194 291 194 q 318 194 342 204 q 366 214 384 232 q 401 250 412 274 q 422 297 422 324 q 422 351 412 376 q 401 400 383 418 q 365 436 342 447 q 318 458 291 458 z"}," ":{"x_min":0,"x_max":240,"ha":240,"o":""},"I":{"x_min":0,"x_max":286,"ha":286,"o":"m 74 0 l 74 710 l 212 710 l 212 0 z"},"H":{"x_min":0,"x_max":745,"ha":745,"o":"m 671 710 l 671 0 l 534 0 l 534 303 l 212 303 l 212 0 l 74 0 l 74 710 l 212 710 l 212 423 l 534 423 l 534 710 z"},"4":{"x_min":0,"x_max":571,"ha":571,"o":"m 312 -127 l 312 22 l 20 22 l 20 141 l 355 571 l 446 571 l 446 142 l 534 142 l 534 22 l 446 22 l 446 -127 z m 154 142 l 327 142 l 327 368 z"},"~":{"x_min":0,"x_max":567,"ha":567,"o":"m 56 228 q 56 237 63 258 q 70 280 86 302 q 102 325 129 342 q 156 360 195 360 q 222 360 244 352 q 267 343 288 333 q 308 323 328 314 q 348 306 371 306 q 392 306 406 314 q 419 321 426 330 q 434 339 437 348 q 440 356 440 358 l 514 358 q 514 353 507 332 q 500 311 484 288 q 467 265 439 246 q 411 228 370 228 q 343 228 320 236 q 297 244 276 254 q 255 264 235 272 q 215 280 194 280 q 173 280 160 272 q 148 264 142 254 q 135 245 132 237 q 130 229 130 228 l 56 228 z"},"D":{"x_min":0,"x_max":716,"ha":716,"o":"m 74 0 l 74 710 l 332 710 q 419 710 484 682 q 550 654 594 606 q 638 558 660 494 q 682 429 682 356 q 682 275 658 210 q 633 144 587 98 q 541 51 476 26 q 412 0 332 0 z m 543 356 q 543 407 529 450 q 515 493 488 524 q 461 555 422 572 q 382 589 332 589 l 212 589 l 212 121 l 332 121 q 383 121 422 139 q 462 157 488 188 q 515 220 529 263 q 543 306 543 356 z"},"^":{"x_min":0,"x_max":585,"ha":585,"o":"m 39 303 l 237 710 l 349 710 l 546 303 l 436 303 l 293 597 l 147 303 z"},"0":{"x_min":0,"x_max":614,"ha":614,"o":"m 565 293 q 565 227 546 172 q 526 116 492 76 q 457 35 410 12 q 362 -10 307 -10 q 251 -10 204 12 q 157 35 122 76 q 88 116 68 172 q 49 227 49 293 q 49 359 68 414 q 88 470 122 510 q 157 551 204 574 q 251 597 307 597 q 362 597 410 574 q 457 551 492 510 q 526 470 546 414 q 565 359 565 293 z m 430 293 q 430 333 421 366 q 412 400 396 424 q 379 448 356 461 q 334 474 307 474 q 279 474 256 461 q 234 448 218 424 q 201 400 192 366 q 183 333 183 293 q 183 253 192 220 q 201 187 218 163 q 234 139 256 126 q 279 113 307 113 q 334 113 356 126 q 379 139 396 163 q 412 187 421 220 q 430 253 430 293 z"},"F":{"x_min":0,"x_max":574,"ha":574,"o":"m 74 0 l 74 710 l 551 710 l 551 589 l 212 589 l 212 406 l 494 406 l 494 294 l 212 294 l 212 0 z"},"`":{"x_min":0,"x_max":255,"ha":255,"o":"m 47 730 l 171 730 l 226 611 l 140 585 z"},"k":{"x_min":0,"x_max":558,"ha":558,"o":"m 419 0 l 267 227 l 195 156 l 195 0 l 61 0 l 61 730 l 195 730 l 195 287 l 405 523 l 548 523 l 353 301 l 562 0 z"},"u":{"x_min":0,"x_max":618,"ha":618,"o":"m 221 -10 q 140 -10 98 42 q 56 94 56 196 l 56 524 l 190 524 l 190 225 q 190 104 277 104 q 316 104 352 128 q 389 151 412 199 l 412 524 l 546 524 l 546 154 q 546 133 554 124 q 561 115 578 114 l 578 0 q 558 -4 544 -5 q 531 -6 520 -6 q 484 -6 462 10 q 439 27 435 56 l 432 98 q 397 44 342 17 q 287 -10 221 -10 z"},"]":{"x_min":0,"x_max":316,"ha":316,"o":"m 46 -40 l 46 67 l 110 67 l 110 633 l 46 633 l 46 740 l 234 740 l 234 -40 z"},"U":{"x_min":0,"x_max":750,"ha":750,"o":"m 374 117 q 423 117 456 137 q 490 157 510 189 q 531 221 540 262 q 548 304 548 348 l 548 710 l 685 710 l 685 348 q 685 275 668 211 q 650 147 612 99 q 575 51 516 23 q 457 -5 375 -5 q 290 -5 230 24 q 171 54 134 102 q 97 151 80 215 q 64 279 64 348 l 64 710 l 202 710 l 202 348 q 202 303 210 262 q 219 220 240 188 q 260 156 293 136 q 326 117 374 117 z"},"o":{"x_min":0,"x_max":606,"ha":606,"o":"m 303 -10 q 239 -10 188 12 q 137 34 102 72 q 66 109 47 158 q 28 207 28 261 q 28 316 47 365 q 66 414 102 452 q 137 489 188 511 q 239 533 303 533 q 367 533 418 511 q 468 489 504 452 q 539 414 558 365 q 577 316 577 261 q 577 207 558 158 q 539 109 504 72 q 469 34 418 12 q 367 -10 303 -10 z m 166 261 q 166 226 176 198 q 187 169 206 148 q 224 127 249 116 q 274 104 303 104 q 332 104 357 116 q 382 127 400 148 q 419 169 430 198 q 440 227 440 262 q 440 296 430 325 q 419 354 400 375 q 382 396 357 408 q 332 419 303 419 q 274 419 249 407 q 224 395 206 374 q 187 353 176 324 q 166 295 166 261 z"},"N":{"x_min":0,"x_max":763,"ha":763,"o":"m 212 455 l 212 0 l 74 0 l 74 710 l 181 710 l 551 244 l 551 709 l 689 709 l 689 0 l 577 0 z"},"+":{"x_min":0,"x_max":421,"ha":421,"o":"m 374 409 l 374 301 l 271 301 l 271 188 l 150 188 l 150 301 l 47 301 l 47 409 l 150 409 l 150 522 l 271 522 l 271 409 z"},"G":{"x_min":0,"x_max":725,"ha":725,"o":"m 567 80 q 482 -5 369 -5 q 299 -5 238 23 q 176 51 130 100 q 85 149 58 216 q 32 282 32 359 q 32 432 58 496 q 85 561 132 610 q 178 658 241 686 q 304 715 378 715 q 478 715 550 673 q 621 631 657 560 l 554 484 q 527 537 478 565 q 430 593 373 593 q 328 593 290 574 q 253 555 226 522 q 200 489 186 446 q 171 403 171 355 q 171 305 187 262 q 203 218 231 186 q 259 154 298 136 q 336 117 381 117 q 484 117 567 214 l 567 264 l 424 264 l 424 365 l 681 365 l 681 0 l 567 0 z"},"q":{"x_min":0,"x_max":634,"ha":634,"o":"m 259 -10 q 209 -10 167 12 q 125 33 94 70 q 64 107 47 156 q 30 206 30 263 q 30 320 48 369 q 67 418 100 454 q 133 491 178 512 q 223 533 275 533 q 335 533 381 506 q 427 478 456 433 l 456 524 l 573 524 l 573 -52 q 573 -74 581 -82 q 589 -91 609 -92 l 609 -206 q 592 -209 572 -210 q 552 -212 536 -212 q 516 -212 498 -205 q 481 -198 468 -186 q 455 -174 447 -158 q 439 -141 439 -121 l 439 92 q 410 41 364 16 q 318 -10 259 -10 z m 309 104 q 352 104 384 128 q 416 152 439 190 l 439 314 q 433 336 420 355 q 406 374 388 388 q 370 403 349 411 q 328 419 307 419 q 276 419 250 406 q 225 393 206 370 q 188 348 178 319 q 167 290 167 259 q 167 226 178 198 q 188 170 206 149 q 225 128 251 116 q 277 104 309 104 z"},"d":{"x_min":0,"x_max":645,"ha":645,"o":"m 278 -10 q 224 -10 178 11 q 132 32 99 69 q 66 106 48 156 q 29 205 29 262 q 29 319 46 368 q 64 417 95 454 q 126 491 169 512 q 212 533 263 533 q 321 533 368 505 q 414 477 440 432 l 440 730 l 574 730 l 574 154 q 574 133 581 124 q 588 115 605 114 l 605 0 q 570 -7 548 -7 q 512 -7 489 11 q 466 29 463 58 l 460 91 q 431 41 382 16 q 332 -10 278 -10 z m 313 104 q 332 104 352 110 q 372 117 389 129 q 406 141 420 157 q 433 173 440 192 l 440 317 q 432 339 418 358 q 403 376 384 390 q 366 403 346 411 q 325 419 305 419 q 275 419 250 406 q 224 393 206 370 q 188 348 178 319 q 168 290 168 259 q 168 226 179 198 q 190 170 209 149 q 228 128 254 116 q 281 104 313 104 z"},"1":{"x_min":0,"x_max":494,"ha":494,"o":"m 470 121 l 470 0 l 64 0 l 64 121 l 206 121 l 206 424 q 197 412 178 400 q 158 387 135 376 q 112 365 88 358 q 63 351 44 351 l 44 476 q 62 476 88 488 q 114 499 139 515 q 164 531 182 546 q 201 562 206 571 l 343 571 l 343 121 z"},"5":{"x_min":0,"x_max":554,"ha":554,"o":"m 290 319 q 340 319 383 302 q 426 286 457 256 q 488 226 506 184 q 523 142 523 91 q 523 37 504 -7 q 484 -51 449 -82 q 414 -114 366 -132 q 318 -149 262 -149 q 184 -149 122 -116 q 61 -83 29 -26 l 106 54 q 134 15 176 -8 q 218 -31 263 -31 q 317 -31 352 2 q 386 34 386 88 q 386 140 354 172 q 321 204 271 204 q 238 204 210 189 q 181 174 164 148 l 47 148 q 47 151 51 170 q 55 190 61 220 q 67 251 74 288 q 81 326 89 365 q 107 457 129 571 l 479 571 l 479 449 l 226 449 l 197 290 q 209 303 232 311 q 256 319 290 319 z"}}}
